<svg width="17" height="25" viewBox="0 0 17 25" fill="none" xmlns="http://www.w3.org/2000/svg">
<path d="M14.7733 5.84392C13.3556 3.52164 11.3429 1.59167 8.92939 0.240112L8.5 0L8.0706 0.240112C5.61598 1.6097 3.57774 3.58016 2.16097 5.95323C0.744201 8.3263 -0.00111926 11.0183 1.26159e-06 13.7583C1.26159e-06 13.9368 0.003217 14.1181 0.00948749 14.2972C0.094809 16.725 1.05516 18.7679 2.78673 20.205C4.11178 21.3048 5.81146 21.9762 7.64271 22.1363V25H9.35772V11.7353H7.6425V20.4676C4.74499 20.1431 1.86116 18.1642 1.72337 14.2408C1.71769 14.0804 1.71479 13.9181 1.71479 13.7583C1.7199 11.3924 2.34487 9.06628 3.53138 6.99707C4.7179 4.92786 6.42728 3.18299 8.5 1.9253C10.5727 3.18302 12.282 4.9279 13.4685 6.9971C14.655 9.06631 15.2799 11.3924 15.285 13.7583C15.285 13.9181 15.2821 14.0804 15.2764 14.2408C15.1662 17.3794 13.2984 19.2735 11.0723 20.0719V21.8267C12.2275 21.5102 13.2987 20.9571 14.2133 20.2049C15.9448 18.7678 16.9052 16.7249 16.9905 14.2971C16.9968 14.118 17 13.9367 17 13.7582C17.0015 10.9753 16.2327 8.24267 14.7733 5.84392Z" fill="#769914"/>
</svg>
