<svg width="25" height="27" viewBox="0 0 25 27" fill="none" xmlns="http://www.w3.org/2000/svg">
<path d="M5.28422 6.83857C4.87483 6.9016 4.59405 7.28458 4.65708 7.69397C4.72011 8.10336 5.10309 8.38414 5.51248 8.32111L5.28422 6.83857ZM9.42179 7.71922C9.83118 7.65619 10.112 7.27321 10.0489 6.86382C9.9859 6.45443 9.60292 6.17366 9.19353 6.23669L9.42179 7.71922ZM6.21298 12.5388C5.80359 12.6019 5.52281 12.9848 5.58584 13.3942C5.64888 13.8036 6.03185 14.0844 6.44124 14.0214L6.21298 12.5388ZM16.2145 12.5166C16.6239 12.4536 16.9047 12.0706 16.8417 11.6612C16.7786 11.2519 16.3957 10.9711 15.9863 11.0341L16.2145 12.5166ZM6.83216 16.339C6.42277 16.402 6.14199 16.785 6.20502 17.1944C6.26805 17.6038 6.65102 17.8846 7.06041 17.8215L6.83216 16.339ZM14.879 16.6178C15.2884 16.5547 15.5692 16.1717 15.5062 15.7624C15.4431 15.353 15.0602 15.0722 14.6508 15.1352L14.879 16.6178ZM5.92039 23.0815L5.80626 22.3402L5.92039 23.0815ZM3.65615 21.4823L2.91591 21.6029L3.65615 21.4823ZM21.2481 18.7738L20.5078 18.8944L21.2481 18.7738ZM19.603 20.9749L19.7171 21.7161L19.603 20.9749ZM16.3523 1.02397L16.2382 0.2827L16.3523 1.02397ZM18.6166 2.62311L19.3568 2.5025L18.6166 2.62311ZM2.66972 3.13057L2.78385 3.87184L2.66972 3.13057ZM1.02465 5.3316L1.76489 5.21099L1.02465 5.3316ZM23.25 7.72419V24.0762H24.75V7.72419H23.25ZM22.021 25.25H8.16782V26.75H22.021V25.25ZM8.16782 25.25C7.46889 25.25 6.9388 24.7046 6.9388 24.0762H5.4388C5.4388 25.5728 6.68079 26.75 8.16782 26.75V25.25ZM23.25 24.0762C23.25 24.7046 22.7199 25.25 22.021 25.25V26.75C23.508 26.75 24.75 25.5728 24.75 24.0762H23.25ZM22.021 6.55042C22.7199 6.55042 23.25 7.09582 23.25 7.72419H24.75C24.75 6.22763 23.508 5.05042 22.021 5.05042V6.55042ZM6.9388 24.0762V22.1525H5.4388V24.0762H6.9388ZM22.021 5.05042H19.0524V6.55042H22.021V5.05042ZM5.51248 8.32111L9.42179 7.71922L9.19353 6.23669L5.28422 6.83857L5.51248 8.32111ZM6.44124 14.0214L16.2145 12.5166L15.9863 11.0341L6.21298 12.5388L6.44124 14.0214ZM7.06041 17.8215L14.879 16.6178L14.6508 15.1352L6.83216 16.339L7.06041 17.8215ZM2.78385 3.87184L16.4664 1.76523L16.2382 0.2827L2.5556 2.38931L2.78385 3.87184ZM17.8763 2.74372L20.5078 18.8944L21.9883 18.6532L19.3568 2.5025L17.8763 2.74372ZM19.4889 20.2336L5.80626 22.3402L6.03452 23.8227L19.7171 21.7161L19.4889 20.2336ZM4.39638 21.3617L1.76489 5.21099L0.284416 5.45221L2.91591 21.6029L4.39638 21.3617ZM5.80626 22.3402C5.1149 22.4466 4.49816 21.9864 4.39638 21.3617L2.91591 21.6029C3.15609 23.077 4.56683 24.0487 6.03452 23.8227L5.80626 22.3402ZM20.5078 18.8944C20.6087 19.5136 20.1757 20.1278 19.4889 20.2336L19.7171 21.7161C21.1894 21.4894 22.2294 20.1329 21.9883 18.6532L20.5078 18.8944ZM16.4664 1.76523C17.1578 1.65879 17.7745 2.11905 17.8763 2.74372L19.3568 2.5025C19.1166 1.02839 17.7059 0.0567313 16.2382 0.2827L16.4664 1.76523ZM2.5556 2.38931C1.08334 2.61598 0.0433306 3.97256 0.284416 5.45221L1.76489 5.21099C1.66402 4.59187 2.09705 3.97758 2.78385 3.87184L2.5556 2.38931Z" fill="#F2994A"/>
</svg>
