<svg width="25" height="25" viewBox="0 0 25 25" fill="none" xmlns="http://www.w3.org/2000/svg">
<path d="M14.8618 7.85782H3.9111C3.70365 7.85782 3.50469 7.77503 3.358 7.62767C3.21132 7.48031 3.12891 7.28044 3.12891 7.07203V3.92886C3.12891 3.72045 3.21132 3.52058 3.358 3.37322C3.50469 3.22586 3.70365 3.14307 3.9111 3.14307H14.8618C15.0692 3.14307 15.2682 3.22586 15.4149 3.37322C15.5615 3.52058 15.644 3.72045 15.644 3.92886V7.07203C15.644 7.28044 15.5615 7.48031 15.4149 7.62767C15.2682 7.77503 15.0692 7.85782 14.8618 7.85782ZM4.69329 6.28624H14.0796V4.6675H4.69329V6.28624Z" fill="#CF2D48"/>
<path d="M14.8618 9.49243H3.9111C3.70365 9.49243 3.50469 9.57522 3.358 9.72259C3.21132 9.86995 3.12891 10.0698 3.12891 10.2782V13.3585C3.12891 13.5669 3.21132 13.7668 3.358 13.9142C3.50469 14.0615 3.70365 14.1443 3.9111 14.1443H12.7968L15.644 11.2369V10.2782C15.644 10.0698 15.5615 9.86995 15.4149 9.72259C15.2682 9.57522 15.0692 9.49243 14.8618 9.49243ZM14.0796 12.5727H4.69329V11.0012H14.0796V12.5727Z" fill="#CF2D48"/>
<path d="M7.08665 23.1887V23.1416L7.33695 22.0493H1.56438V1.57159H17.2082V9.62596L18.7726 8.14081V0.785793C18.7726 0.577388 18.6902 0.377518 18.5435 0.230153C18.3968 0.0827886 18.1978 0 17.9904 0H0.782191C0.574741 0 0.375787 0.0827886 0.229098 0.230153C0.0824091 0.377518 0 0.577388 0 0.785793V22.788C0 22.9964 0.0824091 23.1963 0.229098 23.3436C0.375787 23.491 0.574741 23.5738 0.782191 23.5738H7.03972C7.04616 23.4445 7.06184 23.3158 7.08665 23.1887Z" fill="#CF2D48"/>
<path d="M3.12891 19.5976C3.12891 19.806 3.21132 20.0059 3.358 20.1533C3.50469 20.3006 3.70365 20.3834 3.9111 20.3834H7.6969L7.93156 19.3619L8.03324 18.9297V18.8904H4.69329V17.2874H9.65238L11.2168 15.7158H3.9111C3.70365 15.7158 3.50469 15.7986 3.358 15.946C3.21132 16.0933 3.12891 16.2932 3.12891 16.5016V19.5976Z" fill="#CF2D48"/>
<path d="M24.6306 11.5277L21.9946 8.87959C21.8776 8.76174 21.7386 8.66824 21.5856 8.60445C21.4326 8.54065 21.2686 8.50781 21.1029 8.50781C20.9372 8.50781 20.7732 8.54065 20.6202 8.60445C20.4672 8.66824 20.3282 8.76174 20.2112 8.87959L9.48738 19.7157L8.60351 23.4953C8.57042 23.6584 8.56967 23.8264 8.60132 23.9898C8.63297 24.1531 8.69638 24.3086 8.78793 24.4473C8.87948 24.586 8.99737 24.7051 9.13484 24.798C9.27232 24.8908 9.42667 24.9555 9.58907 24.9883C9.66969 24.9965 9.75092 24.9965 9.83155 24.9883C9.92739 25.004 10.0251 25.004 10.121 24.9883L13.9146 24.1475L24.6306 13.3586C24.7477 13.2418 24.8406 13.1028 24.904 12.9497C24.9674 12.7967 25 12.6325 25 12.4667C25 12.3009 24.9674 12.1368 24.904 11.9837C24.8406 11.8307 24.7477 11.6917 24.6306 11.5749V11.5277ZM13.1167 22.7174L10.2539 23.3539L10.9501 20.5015L18.991 12.3371L21.1968 14.553L13.1167 22.7174ZM22.0807 13.6651L19.8749 11.4491L21.1186 10.2154L23.34 12.4471L22.0807 13.6651Z" fill="#CF2D48"/>
</svg>
