<svg width="21" height="27" viewBox="0 0 21 27" fill="none" xmlns="http://www.w3.org/2000/svg">
<path d="M16.9725 11.0102C17.2053 9.74955 16.9198 8.44787 16.1812 7.40239C16.5483 6.23604 16.2498 4.96131 15.4033 4.082C14.5569 3.20289 13.299 2.86058 12.1269 3.19079C10.8337 1.05706 8.0737 0.36463 5.93403 1.63702C3.79455 2.9094 3.07051 5.67385 4.3095 7.8398C2.53943 8.99658 1.72619 11.1774 2.30333 13.2183C1.45978 14.2121 0.997484 15.4763 1.00001 16.7826C1.00001 19.8183 3.44905 22.2883 6.47036 22.2883C7.59373 22.2899 8.6897 21.9405 9.60671 21.2887V25.5001C9.60671 25.7762 9.8294 26 10.1042 26C10.3789 26 10.6016 25.7762 10.6016 25.5001V21.1774C11.6043 21.8759 12.7959 22.2488 14.0159 22.2461C17.3131 22.2461 20 19.5508 20 16.2376C20.0019 14.0742 18.8453 12.0772 16.9725 11.0102ZM14.0159 21.2463C12.7485 21.2461 11.5284 20.763 10.6016 19.8943V18.4454L13.0707 16.9033C13.3046 16.7582 13.3777 16.4501 13.2339 16.2146C13.0855 15.9801 12.7771 15.909 12.5417 16.055L10.6016 17.2669V12.2611C10.6016 11.985 10.3789 11.7612 10.1042 11.7612C9.8294 11.7612 9.60671 11.985 9.60671 12.2611V14.6487L8.49966 13.7036C8.28921 13.5294 7.97849 13.5575 7.80243 13.7667C7.62638 13.9758 7.65047 14.2884 7.85626 14.4681L9.60671 15.9562V19.9927C8.81077 20.8189 7.64756 21.2881 6.47016 21.2881C4.67871 21.2875 3.05982 20.2149 2.35346 18.5608C1.64691 16.9064 1.98872 14.9883 3.22247 13.6833C3.35169 13.547 3.39386 13.3494 3.33148 13.1719C2.69197 11.3478 3.50229 9.3303 5.22281 8.46369C5.22592 8.46213 5.22923 8.46057 5.23233 8.45881L5.2403 8.45471C5.37302 8.38812 5.46921 8.26529 5.50264 8.12001C5.53606 7.97473 5.50302 7.82203 5.41266 7.7035C4.9496 7.08898 4.6995 6.33895 4.70087 5.56782C4.7032 3.90548 5.84833 2.46516 7.4614 2.09551C9.07446 1.72606 10.7276 2.5253 11.4469 4.02225C11.5637 4.26419 11.8498 4.37003 12.0946 4.26185C12.9623 3.88068 13.9733 4.06814 14.6484 4.73538C15.3235 5.40262 15.5267 6.41549 15.162 7.29343C15.0912 7.46293 15.1188 7.65781 15.2339 7.80074C15.9851 8.73746 16.2412 9.98036 15.9224 11.1397C15.8578 11.3728 15.9688 11.6191 16.1857 11.7241C17.9128 12.5568 19.0097 14.3128 19.0051 16.2376C19.0051 18.9993 16.7645 21.2463 14.0159 21.2463Z" fill="#3E1AAB" stroke="#3E1AAB" stroke-width="0.5"/>
</svg>
