<svg width="25" height="27" viewBox="0 0 25 27" fill="none" xmlns="http://www.w3.org/2000/svg">
<path d="M13.0227 16.0013C13.0227 12.9792 17.2045 13.5 17.2045 15.5834C17.2045 18.1875 13.0227 18.1192 13.0227 20.7917C14.2557 20.7917 17.2045 20.7917 17.2045 20.7917M7.79545 14.0208H9.36364V20.7917M1 9.33333H24M17.7273 5.16667V1M7.27273 5.16667V1M3.09091 26H21.9091C23.0639 26 24 25.0673 24 23.9167V5.16667C24 4.01607 23.0639 3.08333 21.9091 3.08333H3.09091C1.93613 3.08333 1 4.01607 1 5.16667V23.9167C1 25.0673 1.93613 26 3.09091 26Z" stroke="#3E1AAB" stroke-width="1.5" stroke-linecap="round" stroke-linejoin="round"/>
</svg>
