<svg width="26" height="27" viewBox="0 0 26 27" fill="none" xmlns="http://www.w3.org/2000/svg">
<path d="M16.0596 1.72833C15.9528 1.30029 15.5689 1 15.1285 1H10.8687C10.4283 1 10.0445 1.30029 9.93766 1.72833L9.30346 4.26986C9.24043 4.52246 9.07784 4.73865 8.85287 4.869L7.61349 5.58715C7.38809 5.71775 7.11939 5.751 6.86904 5.67925L4.35361 4.95834C3.9302 4.83699 3.47869 5.01992 3.25849 5.40203L1.12861 9.098C0.908411 9.4801 0.976039 9.96332 1.29264 10.27L3.17352 12.0921C3.36053 12.2732 3.46613 12.5227 3.46613 12.7833L3.46613 14.2167C3.46613 14.4773 3.36053 14.7268 3.17352 14.908L1.29264 16.73C0.976039 17.0367 0.90841 17.5199 1.12861 17.902L3.25849 21.598C3.47869 21.9801 3.9302 22.163 4.35361 22.0417L6.85778 21.324C7.11474 21.2504 7.39071 21.2874 7.61927 21.4262L8.54393 21.9878C8.73856 22.106 8.88493 22.2897 8.9569 22.506L9.90065 25.3425C10.0313 25.7352 10.398 26 10.8111 26H15.1861C15.5992 26 15.966 25.7352 16.0966 25.3425L17.0394 22.5089C17.1119 22.2908 17.2601 22.106 17.457 21.9879L18.3994 21.4229C18.6276 21.2861 18.9021 21.2503 19.1576 21.3239L21.6429 22.0403C22.0666 22.1624 22.5189 21.9796 22.7394 21.597L24.8714 17.8974C25.0903 17.5174 25.0248 17.0372 24.7122 16.73L22.8566 14.9072C22.6725 14.7264 22.5688 14.479 22.5688 14.2207V12.7794C22.5688 12.5211 22.6725 12.2736 22.8566 12.0928L24.7122 10.27C25.0248 9.96285 25.0903 9.4826 24.8714 9.10266L22.7394 5.40304C22.5189 5.02046 22.0666 4.83761 21.6429 4.95975L19.147 5.67914C18.8977 5.75098 18.6301 5.71869 18.4049 5.58962L17.1476 4.86868C16.9207 4.7386 16.7566 4.52142 16.6932 4.26735L16.0596 1.72833Z" stroke="#56CCF2" stroke-width="1.5" stroke-linejoin="round"/>
<path d="M17.7973 13.5C17.7973 16.1552 15.6489 18.3077 12.9986 18.3077C10.3484 18.3077 8.19991 16.1552 8.19991 13.5C8.19991 10.8448 10.3484 8.69231 12.9986 8.69231C15.6489 8.69231 17.7973 10.8448 17.7973 13.5Z" stroke="#56CCF2" stroke-width="1.5" stroke-linejoin="round"/>
</svg>
