<svg width="126" height="30" viewBox="0 0 126 30" fill="none" xmlns="http://www.w3.org/2000/svg">
<path fill-rule="evenodd" clip-rule="evenodd" d="M0.521813 0.844427C0.190454 1.20056 0 1.7487 0 2.46096V27.796C0 28.5083 0.190454 29.0564 0.5342 29.4001L0.624008 29.476L14.8198 15.2802V14.9613L0.611621 0.768555L0.521813 0.844427Z" fill="url(#paint0_linear_13030_7901)"/>
<path fill-rule="evenodd" clip-rule="evenodd" d="M19.5417 20.0306L14.8066 15.294V14.9627L19.5432 10.2261L19.6454 10.2896L25.2475 13.4731C26.8517 14.3774 26.8517 15.8669 25.2475 16.7836L19.6454 19.9671C19.6439 19.9671 19.5417 20.0306 19.5417 20.0306Z" fill="url(#paint1_linear_13030_7901)"/>
<path fill-rule="evenodd" clip-rule="evenodd" d="M19.6443 19.9669L14.8071 15.1282L0.521484 29.4138C1.0433 29.9743 1.92124 30.0378 2.90293 29.4896L19.6443 19.9669Z" fill="url(#paint2_linear_13030_7901)"/>
<path fill-rule="evenodd" clip-rule="evenodd" d="M19.6443 10.2909L2.90293 0.780617C1.92279 0.220093 1.0433 0.295965 0.521484 0.856488L14.8055 15.1282L19.6443 10.2909Z" fill="url(#paint3_linear_13030_7901)"/>
<path opacity="0.2" fill-rule="evenodd" clip-rule="evenodd" d="M19.5434 19.865L2.91661 29.3118C1.98756 29.846 1.15916 29.8089 0.624964 29.3242L0.535156 29.414L0.624964 29.4899C1.15916 29.973 1.98756 30.0117 2.91661 29.4775L19.658 19.9672L19.5434 19.865Z" fill="black"/>
<path opacity="0.12" fill-rule="evenodd" clip-rule="evenodd" d="M25.246 16.6177L19.5293 19.8647L19.6315 19.9669L25.2336 16.7834C26.0357 16.3251 26.4305 15.7274 26.4305 15.1282C26.3794 15.6763 25.9722 16.1981 25.246 16.6177Z" fill="black"/>
<path opacity="0.25" fill-rule="evenodd" clip-rule="evenodd" d="M2.90326 0.946291L25.2468 13.6401C25.973 14.0474 26.3802 14.5816 26.4437 15.1297C26.4437 14.532 26.0489 13.9328 25.2468 13.4745L2.90326 0.780612C1.29911 -0.136045 0 0.627319 0 2.46063V2.62631C0 0.792999 1.29911 0.0420215 2.90326 0.946291Z" fill="white"/>
<path fill-rule="evenodd" clip-rule="evenodd" d="M31.8976 14.3243C31.8976 10.266 35.3088 6.96167 39.3671 6.96167C41.6108 6.96167 43.2072 7.84271 44.4119 8.99008L42.9935 10.4084C42.1326 9.60016 40.9651 8.97305 39.3656 8.97305C36.4019 8.97305 34.0855 11.3591 34.0855 14.3228C34.0855 17.2864 36.4019 19.6756 39.364 19.6756C41.2856 19.6756 42.3788 18.9045 43.0802 18.2016C43.6547 17.6271 44.0309 16.8018 44.1765 15.6699H39.3671V13.6632H46.1368C46.208 14.0224 46.2452 14.4529 46.2452 14.9189C46.2452 16.4255 45.8317 18.2945 44.5017 19.6245C43.2072 20.9717 41.5566 21.6901 39.3656 21.6901C35.3057 21.6901 31.8945 18.3889 31.8945 14.3274L31.8976 14.3243ZM51.7172 12.2061C49.0958 12.2061 46.9559 14.2005 46.9559 16.9458C46.9559 19.6772 49.0942 21.6855 51.7172 21.6855C54.3402 21.6855 56.4755 19.6741 56.4755 16.9442C56.4755 14.1989 54.3387 12.2046 51.7172 12.2061ZM51.7172 19.8212C50.2819 19.8212 49.0416 18.6367 49.0416 16.9473C49.0416 15.241 50.2803 14.0735 51.7172 14.0735C53.1526 14.0735 54.3913 15.2395 54.3913 16.9473C54.3913 18.6351 53.1542 19.8212 51.7172 19.8212ZM62.0993 12.2061C59.4779 12.2061 57.341 14.2005 57.341 16.9458C57.341 19.6772 59.4779 21.6855 62.0993 21.6855C64.7208 21.6855 66.8576 19.6741 66.8576 16.9442C66.8576 14.1989 64.7223 12.2046 62.0993 12.2061ZM62.0993 19.8212C60.6639 19.8212 59.4237 18.6367 59.4237 16.9473C59.4237 15.241 60.6624 14.0735 62.0993 14.0735C63.5347 14.0735 64.7749 15.2395 64.7749 16.9473C64.7749 18.6351 63.5347 19.8212 62.0993 19.8212ZM74.8411 12.4941V13.2652H74.7699C74.3038 12.7063 73.4058 12.2046 72.2754 12.2046C69.9048 12.2046 67.7293 14.2887 67.7293 16.9659C67.7293 19.6214 69.9033 21.6886 72.2754 21.6886C73.4058 21.6886 74.3038 21.1869 74.7699 20.6124H74.8411V21.2937C74.8411 23.1069 73.8718 24.0778 72.3095 24.0778C71.0336 24.0778 70.2439 23.1611 69.9203 22.3915L68.1056 23.1456C68.6258 24.4014 70.0101 25.9467 72.3079 25.9467C74.7482 25.9467 76.8138 24.5082 76.8138 21.0073V12.4926L74.8411 12.4941ZM72.4535 19.8212C71.0181 19.8212 69.8119 18.6165 69.8119 16.9659C69.8119 15.2967 71.0166 14.0751 72.4535 14.0751C73.8718 14.0751 74.9851 15.2952 74.9851 16.9659C74.9867 18.6165 73.8734 19.8212 72.4535 19.8212ZM78.2523 7.4649H80.3364V21.4006H78.2523V7.4649ZM86.0485 19.8212C84.9894 19.8212 84.2338 19.335 83.7522 18.3858L90.0914 15.7613L89.8731 15.2224C89.4798 14.1649 88.2751 12.2061 85.8147 12.2061C83.3729 12.2061 81.3429 14.1277 81.3429 16.9473C81.3429 19.6029 83.3543 21.687 86.0485 21.687C88.2225 21.687 89.4798 20.36 90 19.5858L88.3835 18.5097C87.8431 19.3009 87.1061 19.8227 86.0485 19.8212ZM85.8859 14.0379C86.7112 14.0379 87.4111 14.4513 87.6449 15.0428L83.4054 16.8033C83.3527 14.9716 84.8253 14.0379 85.8859 14.0379Z" fill="#808285"/>
<path fill-rule="evenodd" clip-rule="evenodd" d="M99.2367 7.46509H94.2539V21.4008H96.3334V16.1222H99.2382C101.544 16.1222 103.811 14.453 103.811 11.7929C103.811 9.13737 101.545 7.46664 99.2413 7.46664L99.2367 7.46509ZM99.2909 14.1821H96.3334V9.40369H99.2909C100.845 9.40369 101.731 10.6935 101.731 11.7929C101.731 12.8737 100.845 14.1821 99.2909 14.1821ZM107.036 21.4008V7.46509H104.956V21.4008H107.036ZM116.378 21.376V16.034C116.378 13.5596 114.529 12.18 112.143 12.18C110.639 12.18 109.08 12.8443 108.434 14.3137L110.28 15.0832C110.675 14.3137 111.409 14.0613 112.181 14.0613C113.256 14.0613 114.349 14.707 114.366 15.8559V15.9999C113.99 15.7847 113.185 15.4611 112.197 15.4611C110.207 15.4611 108.182 16.5542 108.182 18.5981C108.182 20.464 109.814 21.664 111.643 21.664C113.042 21.664 113.812 21.0369 114.295 20.3029H114.366V21.3791H116.376L116.378 21.376ZM111.895 19.8183C111.214 19.8183 110.263 19.4776 110.263 18.6368C110.263 17.5607 111.447 17.1457 112.469 17.1457C113.384 17.1457 113.813 17.3424 114.371 17.6118C114.211 18.8629 113.154 19.8028 111.895 19.8183ZM123.691 12.485L121.306 18.5254H121.235L118.761 12.485H116.52L120.23 20.93L118.113 25.6264H120.283L126.001 12.485H123.691Z" fill="#808285"/>
<defs>
<linearGradient id="paint0_linear_13030_7901" x1="13.5451" y1="2.18864" x2="-9.19413" y2="8.24752" gradientUnits="userSpaceOnUse">
<stop stop-color="#00A0FF"/>
<stop offset="0.007" stop-color="#00A1FF"/>
<stop offset="0.26" stop-color="#00BEFF"/>
<stop offset="0.512" stop-color="#00D2FF"/>
<stop offset="0.76" stop-color="#00DFFF"/>
<stop offset="1" stop-color="#00E3FF"/>
</linearGradient>
<linearGradient id="paint1_linear_13030_7901" x1="27.335" y1="15.129" x2="-0.390648" y2="15.129" gradientUnits="userSpaceOnUse">
<stop stop-color="#FFE000"/>
<stop offset="0.409" stop-color="#FFBD00"/>
<stop offset="0.775" stop-color="#FFA500"/>
<stop offset="1" stop-color="#FF9C00"/>
</linearGradient>
<linearGradient id="paint2_linear_13030_7901" x1="17.014" y1="17.7605" x2="-1.24116" y2="48.485" gradientUnits="userSpaceOnUse">
<stop stop-color="#FF3A44"/>
<stop offset="1" stop-color="#C31162"/>
</linearGradient>
<linearGradient id="paint3_linear_13030_7901" x1="-3.07455" y1="-7.58356" x2="5.06961" y2="6.13852" gradientUnits="userSpaceOnUse">
<stop stop-color="#32A071"/>
<stop offset="0.069" stop-color="#2DA771"/>
<stop offset="0.476" stop-color="#15CF74"/>
<stop offset="0.801" stop-color="#06E775"/>
<stop offset="1" stop-color="#00F076"/>
</linearGradient>
</defs>
</svg>
