<svg width="71" height="69" viewBox="0 0 71 69" fill="none" xmlns="http://www.w3.org/2000/svg">
<path d="M67.2032 0H29.3905C27.2936 0 25.5938 1.64574 25.5938 3.67587V4.71665C25.5938 6.74678 27.2936 8.39252 29.3905 8.39252H67.2032C69.3 8.39252 70.9999 6.74678 70.9999 4.71665V3.67587C70.9999 1.64574 69.3 0 67.2032 0Z" fill="#1DCFA9"/>
<path d="M41.6094 60.4614H3.79672C1.69985 60.4614 0 62.1072 0 64.1373V65.1781C0 67.2082 1.69985 68.854 3.79672 68.854H41.6094C43.7063 68.854 45.4061 67.2082 45.4061 65.1781V64.1373C45.4061 62.1072 43.7063 60.4614 41.6094 60.4614Z" fill="#1DCFA9"/>
<path d="M67.202 20.1726H3.79672C1.69985 20.1726 0 21.8184 0 23.8485V24.8893C0 26.9194 1.69985 28.5651 3.79672 28.5651H67.202C69.2989 28.5651 70.9987 26.9194 70.9987 24.8893V23.8485C70.9987 21.8184 69.2989 20.1726 67.202 20.1726Z" fill="#1DCFA9"/>
<path d="M67.202 40.314H3.79672C1.69985 40.314 0 41.9597 0 43.9898V45.0306C0 47.0607 1.69985 48.7065 3.79672 48.7065H67.202C69.2989 48.7065 70.9987 47.0607 70.9987 45.0306V43.9898C70.9987 41.9597 69.2989 40.314 67.202 40.314Z" fill="#351988"/>
</svg>
