<svg width="27" height="27" viewBox="0 0 27 27" fill="none" xmlns="http://www.w3.org/2000/svg">
<path d="M13.5 1C6.59625 1 1 6.59625 1 13.5C1 20.4037 6.59625 26 13.5 26C20.4037 26 26 20.4037 26 13.5C26 6.59625 20.4037 1 13.5 1Z" stroke="#3E1AAB" stroke-width="2" stroke-linecap="round" stroke-linejoin="round"/>
<path d="M8.5 24.96V16L13.5 7.25L18.5 16V24.96" stroke="#3E1AAB" stroke-width="2" stroke-linecap="round" stroke-linejoin="round"/>
<path d="M8.5 16C8.5 16 9.90875 17.25 11 17.25C12.0913 17.25 13.5 16 13.5 16C13.5 16 14.9087 17.25 16 17.25C17.0913 17.25 18.5 16 18.5 16" stroke="#3E1AAB" stroke-width="2" stroke-linecap="round" stroke-linejoin="round"/>
</svg>
