<svg width="17" height="27" viewBox="0 0 17 27" fill="none" xmlns="http://www.w3.org/2000/svg">
<path d="M15.9728 16.0777C15.9595 15.9803 15.9037 15.8918 15.8179 15.8319C15.7701 15.7986 14.6303 15.0137 13.0789 14.8236C12.8576 14.7963 12.6532 14.937 12.6232 15.1378C12.5932 15.3385 12.7485 15.5232 12.9702 15.5503C14.0102 15.6778 14.8566 16.1291 15.1809 16.3231C15.2114 16.904 15.179 18.952 13.3482 20.0042C11.4145 20.8954 9.45023 19.8759 8.9148 19.557C8.88244 18.9753 8.90941 16.9222 10.763 15.8682C10.9524 15.7605 11.0095 15.5342 10.8905 15.3627C10.7715 15.1912 10.5215 15.1395 10.332 15.2472C9.69505 15.6095 9.23707 16.0611 8.90828 16.5381V13.7746C9.519 14.0798 10.5186 14.4651 11.6727 14.4651C12.3247 14.4651 13.026 14.3421 13.7341 14.012C13.745 14.0069 13.7556 14.0014 13.7659 13.9955C16.358 12.5203 15.9896 9.56557 15.9727 9.44047C15.9595 9.34306 15.9037 9.25453 15.8178 9.19467C15.7075 9.11772 13.0854 7.32514 10.3621 8.59443C10.3519 8.59921 10.3417 8.60449 10.332 8.61C9.695 8.97226 9.23702 9.42382 8.90822 9.90082V8.9351C9.66884 8.58251 11.8178 7.38413 11.9309 5.05742C11.9315 5.04551 11.9315 5.0335 11.9308 5.02149C11.8008 2.25357 8.78573 1.07726 8.65742 1.02853C8.55747 0.990589 8.44485 0.990491 8.3448 1.02823C8.29469 1.04718 7.10674 1.50309 6.17148 2.5087C6.02741 2.66363 6.04931 2.89493 6.2204 3.02535C6.39154 3.15577 6.64704 3.13599 6.79116 2.98106C7.41035 2.31549 8.17571 1.92086 8.49992 1.77267C9.07203 2.03692 11.0203 3.07833 11.1209 5.03946C11.0163 7.00078 9.06534 8.03896 8.49291 8.30209C7.92032 8.03754 5.97261 6.99604 5.87235 5.03511C5.87434 4.99761 5.87698 4.96045 5.88033 4.92364C5.89845 4.72178 5.73238 4.54483 5.50941 4.52847C5.28751 4.51167 5.09102 4.66236 5.0729 4.86421C5.06837 4.91504 5.06481 4.96641 5.06227 5.01831C5.062 5.02373 5.06184 5.0293 5.06184 5.03472C5.06184 5.0398 5.06195 5.04492 5.06222 5.05C5.17047 7.40073 7.35905 8.60419 8.09826 8.94472V9.91049C7.76903 9.42992 7.30906 8.9747 6.6678 8.61005C6.65804 8.60454 6.6479 8.59931 6.63771 8.59453C3.91461 7.32529 1.29232 9.11786 1.18202 9.19477C1.09615 9.25468 1.04038 9.34321 1.02716 9.44057C1.01023 9.56557 0.64238 12.5176 3.23031 13.9935C3.24337 14.0011 3.25685 14.0081 3.27087 14.0144C3.97744 14.3428 4.67652 14.4652 5.32715 14.4651C6.48523 14.465 7.48812 14.0769 8.09826 13.7713V16.5476C7.76903 16.0671 7.30906 15.6119 6.6678 15.2472C6.65675 15.2409 6.64526 15.2351 6.6335 15.2298C3.9117 13.9642 1.29215 15.7551 1.18202 15.832C1.09615 15.8918 1.04038 15.9804 1.02716 16.0778C1.01023 16.2029 0.641895 19.1587 3.2356 20.6337C3.24574 20.6395 3.2561 20.6448 3.26678 20.6497C3.97464 20.9795 4.67533 21.1024 5.32715 21.1023C6.48523 21.1022 7.48812 20.7141 8.09826 20.4085V25.6333C8.09826 25.8358 8.27959 26 8.50332 26C8.72705 26 8.90838 25.8358 8.90838 25.6333V20.4119C9.51932 20.7173 10.5194 21.1031 11.6733 21.103C12.3241 21.103 13.0239 20.9803 13.7301 20.6511C13.7418 20.6458 13.7532 20.64 13.7644 20.6337C16.3581 19.1587 15.9898 16.2028 15.9728 16.0777ZM10.7482 9.23945C12.681 8.34848 14.6447 9.36694 15.181 9.68627C15.2114 10.2676 15.1787 12.3153 13.3479 13.3672C11.415 14.2578 9.45169 13.2395 8.91545 12.9202C8.88503 12.339 8.91761 10.2914 10.7482 9.23945ZM8.08439 12.9208C7.54929 13.2415 5.59306 14.2617 3.65194 13.3672C1.82003 12.3147 1.78843 10.2651 1.81885 9.68564C2.35395 9.36493 4.31012 8.34477 6.25136 9.2393C8.08326 10.2917 8.11487 12.3413 8.08439 12.9208ZM8.08439 19.558C7.54961 19.8784 5.59517 20.8971 3.65177 20.0043C1.81987 18.9518 1.78843 16.9024 1.81885 16.3228C2.35357 16.0024 4.30781 14.9836 6.2513 15.8765C8.08321 16.9289 8.11487 18.9785 8.08439 19.558Z" fill="#1DCEA8" stroke="#1DCEA8" stroke-width="0.5"/>
</svg>
