<svg width="25" height="25" viewBox="0 0 25 25" fill="none" xmlns="http://www.w3.org/2000/svg">
<path d="M12.5 1C18.8513 1 24 6.14873 24 12.5C24 18.8513 18.8513 24 12.5 24C6.14873 24 1 18.8513 1 12.5C1 6.14873 6.14873 1 12.5 1Z" stroke="#FCD432" stroke-width="2" stroke-linecap="round"/>
<path d="M7.38892 15.0556C8.0278 16.9723 9.67724 18.8889 12.5 18.8889C15.3228 18.8889 16.9722 16.9723 17.6111 15.0556" stroke="#FCD432" stroke-width="2" stroke-linecap="round"/>
<path d="M8.66645 11.222C9.37215 11.222 9.94423 10.3639 9.94423 9.30534C9.94423 8.24679 9.37215 7.38867 8.66645 7.38867C7.96075 7.38867 7.38867 8.24679 7.38867 9.30534C7.38867 10.3639 7.96075 11.222 8.66645 11.222Z" fill="#FCD432"/>
<path d="M16.3325 11.222C17.0382 11.222 17.6102 10.3639 17.6102 9.30534C17.6102 8.24679 17.0382 7.38867 16.3325 7.38867C15.6268 7.38867 15.0547 8.24679 15.0547 9.30534C15.0547 10.3639 15.6268 11.222 16.3325 11.222Z" fill="#FCD432"/>
</svg>
