<svg width="93" height="32" viewBox="0 0 93 32" fill="none" xmlns="http://www.w3.org/2000/svg">
<path d="M21.7104 17.0218C21.6765 12.9755 25.0179 11.0088 25.1646 10.9184C23.2682 8.16049 20.3332 7.7762 19.3059 7.74229C16.845 7.48233 14.4519 9.22295 13.1988 9.22295C11.9232 9.22295 9.98162 7.7762 7.90453 7.8101C5.22916 7.85532 2.71182 9.40379 1.34592 11.8226C-1.4875 16.7393 0.623452 23.973 3.34398 27.9516C4.70989 29.8957 6.29028 32.0771 8.37865 31.998C10.4106 31.9189 11.1782 30.6982 13.6278 30.6982C16.0661 30.6982 16.7773 31.998 18.8995 31.9528C21.0895 31.9189 22.4554 29.9974 23.7762 28.0307C25.3453 25.8041 25.9774 23.6 26 23.487C25.9436 23.4644 21.7555 21.8594 21.7104 17.0218Z" fill="black"/>
<path d="M17.7015 5.13145C18.7965 3.76381 19.5415 1.89886 19.3383 0C17.7579 0.0678165 15.7712 1.09637 14.631 2.44139C13.6263 3.62818 12.7233 5.56095 12.949 7.38069C14.7326 7.51633 16.5614 6.47647 17.7015 5.13145Z" fill="black"/>
<path d="M47.4645 23.3008H45.9548L45.1281 20.5892H42.2525L41.4677 23.3008H40L42.8456 14.0725H44.6069L47.4645 23.3008ZM44.8825 19.4521L44.1336 17.0466C44.0557 16.7967 43.906 16.2218 43.6903 15.3096H43.6603C43.5705 15.7032 43.4327 16.2843 43.241 17.0466L42.5041 19.4521H44.8825Z" fill="black"/>
<path d="M54.7793 19.8957C54.7793 21.0266 54.4858 21.9201 53.8927 22.5761C53.3655 23.1634 52.7065 23.4508 51.9277 23.4508C51.083 23.4508 50.478 23.1384 50.1065 22.5074V26H48.6867V18.8335C48.6867 18.1213 48.6688 17.3965 48.6328 16.6467H49.8789L49.9568 17.7027H49.9807C50.454 16.9092 51.1729 16.5093 52.1314 16.5093C52.8862 16.5093 53.5093 16.8217 54.0125 17.4402C54.5277 18.065 54.7793 18.8773 54.7793 19.8957ZM53.3355 19.9457C53.3355 19.2959 53.1978 18.7648 52.9162 18.3462C52.6107 17.9088 52.1973 17.6902 51.6821 17.6902C51.3346 17.6902 51.0171 17.8151 50.7296 18.0525C50.448 18.2962 50.2563 18.6086 50.1724 19.0022C50.1305 19.1834 50.1065 19.3334 50.1065 19.4521V20.5642C50.1065 21.0453 50.2503 21.4577 50.5319 21.7889C50.8134 22.12 51.1849 22.2887 51.6402 22.2887C52.1733 22.2887 52.5867 22.07 52.8862 21.6452C53.1858 21.214 53.3355 20.6517 53.3355 19.9457Z" fill="black"/>
<path d="M62.1113 19.8957C62.1113 21.0266 61.8178 21.9201 61.2247 22.5761C60.6975 23.1634 60.0385 23.4508 59.2598 23.4508C58.4151 23.4508 57.81 23.1384 57.4386 22.5074V26H56.0188V18.8335C56.0188 18.1213 56.0008 17.3965 55.9648 16.6467H57.2109L57.2888 17.7027H57.3128C57.786 16.9092 58.5049 16.5093 59.4634 16.5093C60.2183 16.5093 60.8413 16.8217 61.3445 17.4402C61.8597 18.065 62.1113 18.8773 62.1113 19.8957ZM60.6676 19.9457C60.6676 19.2959 60.5298 18.7648 60.2482 18.3462C59.9427 17.9088 59.5293 17.6902 59.0141 17.6902C58.6667 17.6902 58.3492 17.8151 58.0616 18.0525C57.78 18.2962 57.5943 18.6086 57.5045 19.0022C57.4625 19.1834 57.4386 19.3334 57.4386 19.4521V20.5642C57.4386 21.0453 57.5823 21.4577 57.8639 21.7889C58.1455 22.12 58.5169 22.2887 58.9722 22.2887C59.5054 22.2887 59.9247 22.07 60.2183 21.6452C60.5238 21.214 60.6676 20.6517 60.6676 19.9457Z" fill="black"/>
<path d="M70.3194 20.714C70.3194 21.5013 70.0558 22.1386 69.5346 22.6322C68.9595 23.1695 68.1568 23.4382 67.1264 23.4382C66.1738 23.4382 65.413 23.2445 64.8379 22.8633L65.1674 21.6325C65.7904 22.0136 66.4734 22.2073 67.2162 22.2073C67.7494 22.2073 68.1687 22.0823 68.4623 21.8324C68.7618 21.5825 68.9116 21.2451 68.9116 20.8265C68.9116 20.4516 68.7858 20.1392 68.5462 19.883C68.3005 19.6269 67.8932 19.3894 67.324 19.1708C65.7605 18.5647 64.9877 17.6837 64.9877 16.5278C64.9877 15.7718 65.2632 15.1533 65.8084 14.6659C66.3535 14.1848 67.0784 13.9412 67.983 13.9412C68.7858 13.9412 69.4568 14.0849 69.9899 14.3785L69.6305 15.5781C69.1273 15.297 68.5641 15.1533 67.9291 15.1533C67.4319 15.1533 67.0365 15.2845 66.7549 15.5344C66.5213 15.7656 66.4015 16.0405 66.4015 16.3716C66.4015 16.734 66.5393 17.0402 66.8088 17.2714C67.0425 17.49 67.4738 17.7275 68.0969 17.9836C68.8577 18.3023 69.4148 18.6772 69.7743 19.1083C70.1397 19.5394 70.3194 20.0767 70.3194 20.714Z" fill="black"/>
<path d="M75.0148 17.7588H73.4512V20.9891C73.4512 21.8076 73.7268 22.2199 74.278 22.2199C74.5296 22.2199 74.7392 22.1949 74.907 22.1512L74.9489 23.2759C74.6674 23.3821 74.3019 23.4383 73.8466 23.4383C73.2835 23.4383 72.8522 23.2571 72.5346 22.901C72.2171 22.5448 72.0614 21.945 72.0614 21.1078V17.7526H71.1328V16.6467H72.0614V15.4283L73.4512 14.991V16.6467H75.0148V17.7588Z" fill="black"/>
<path d="M82.0491 19.9206C82.0491 20.9452 81.7676 21.7825 81.2104 22.4385C80.6233 23.1133 79.8445 23.4507 78.874 23.4507C77.9395 23.4507 77.1906 23.1258 76.6335 22.4822C76.0764 21.8387 75.8008 21.0202 75.8008 20.033C75.8008 19.0021 76.0883 18.1586 76.6575 17.5026C77.2326 16.8465 78.0054 16.5154 78.9759 16.5154C79.9104 16.5154 80.6653 16.8403 81.2344 17.4901C81.7795 18.1149 82.0491 18.9271 82.0491 19.9206ZM80.5814 19.9518C80.5814 19.3395 80.4556 18.8209 80.204 18.3835C79.9044 17.8525 79.4791 17.59 78.9279 17.59C78.3588 17.59 77.9215 17.8525 77.628 18.3835C77.3704 18.8209 77.2505 19.352 77.2505 19.983C77.2505 20.5953 77.3763 21.1202 77.628 21.5513C77.9335 22.0824 78.3648 22.3448 78.916 22.3448C79.4551 22.3448 79.8805 22.0761 80.192 21.5388C80.4496 21.0889 80.5814 20.5641 80.5814 19.9518Z" fill="black"/>
<path d="M86.6629 17.9463C86.5251 17.9213 86.3753 17.9088 86.2136 17.9088C85.7164 17.9088 85.327 18.1025 85.0574 18.4962C84.8237 18.8398 84.7039 19.2834 84.7039 19.8082V23.3009H83.2841V18.7398C83.2841 17.9713 83.2721 17.2715 83.2422 16.6467H84.4763L84.5302 17.9213H84.5721C84.7219 17.484 84.9555 17.1278 85.279 16.8654C85.5965 16.628 85.938 16.5093 86.3035 16.5093C86.4353 16.5093 86.5551 16.5218 86.6569 16.5343L86.6629 17.9463Z" fill="black"/>
<path d="M92.9994 19.6582C92.9994 19.9206 92.9814 20.1456 92.9455 20.3268H88.6921C88.71 20.9828 88.9137 21.4889 89.3091 21.8325C89.6686 22.1387 90.1298 22.2949 90.699 22.2949C91.328 22.2949 91.9031 22.1887 92.4183 21.9825L92.64 23.0072C92.0349 23.2821 91.322 23.4195 90.5013 23.4195C89.5128 23.4195 88.734 23.1134 88.1709 22.5073C87.6077 21.9013 87.3262 21.0828 87.3262 20.0644C87.3262 19.0647 87.5898 18.2274 88.1169 17.5589C88.6681 16.8466 89.4109 16.4905 90.3455 16.4905C91.2621 16.4905 91.963 16.8466 92.4303 17.5589C92.8077 18.1337 92.9994 18.8272 92.9994 19.6582ZM91.6455 19.2771C91.6575 18.8397 91.5616 18.4586 91.3699 18.14C91.1243 17.7276 90.7469 17.5214 90.2437 17.5214C89.7824 17.5214 89.405 17.7213 89.1174 18.1212C88.8838 18.4399 88.74 18.8272 88.698 19.2709L91.6455 19.2771Z" fill="black"/>
<path d="M44.1997 10.7736H43.4568L43.0494 9.44279H41.6356L41.2462 10.7736H40.5273L41.9232 6.23755H42.7859L44.1997 10.7736ZM42.9236 8.88047L42.5582 7.69334C42.5223 7.57463 42.4504 7.28722 42.3365 6.83736H42.3246C42.2766 7.03105 42.2167 7.31221 42.1149 7.69334L41.7554 8.88047H42.9236Z" fill="black"/>
<path d="M47.6969 7.49951L46.5108 10.7735H45.8338L44.6836 7.49951H45.4324L45.9656 9.23022C46.0555 9.51763 46.1334 9.79254 46.1933 10.055H46.2112C46.2651 9.81753 46.343 9.54262 46.4389 9.23022L46.9661 7.49951H47.6969Z" fill="black"/>
<path d="M50.2263 10.7736L50.1724 10.3987H50.1544C49.9387 10.6986 49.6332 10.8485 49.2378 10.8485C48.6747 10.8485 48.2793 10.4362 48.2793 9.88634C48.2793 9.08034 48.9503 8.66172 50.1125 8.66172V8.59924C50.1125 8.16813 49.8908 7.9557 49.4595 7.9557C49.148 7.9557 48.8784 8.03692 48.6387 8.19937L48.495 7.72452C48.7825 7.53708 49.148 7.44336 49.5733 7.44336C50.394 7.44336 50.8074 7.89322 50.8074 8.79918V10.0051C50.8074 10.3362 50.8194 10.5924 50.8553 10.7861L50.2263 10.7736ZM50.1304 9.14282C49.3576 9.14282 48.9682 9.33651 48.9682 9.80511C48.9682 10.1488 49.1659 10.3175 49.4475 10.3175C49.8009 10.3175 50.1304 10.0363 50.1304 9.64891V9.14282Z" fill="black"/>
<path d="M52.3587 6.96223C52.125 6.96223 51.9453 6.77479 51.9453 6.52486C51.9453 6.27494 52.131 6.09375 52.3707 6.09375C52.6103 6.09375 52.802 6.27494 52.796 6.52486C52.796 6.78728 52.6163 6.96223 52.3587 6.96223ZM52.0232 7.49956H52.7181V10.7673H52.0232V7.49956Z" fill="black"/>
<path d="M53.957 6H54.652V10.7672H53.957V6Z" fill="black"/>
<path d="M57.613 10.7735L57.5591 10.3986H57.5411C57.3255 10.6985 57.02 10.8484 56.6246 10.8484C56.0614 10.8484 55.666 10.4361 55.666 9.88624C55.666 9.08024 56.337 8.66163 57.4992 8.66163V8.59914C57.4992 8.16803 57.2776 7.9556 56.8462 7.9556C56.5347 7.9556 56.2651 8.03682 56.0255 8.19927L55.8817 7.71817C56.1693 7.53073 56.5347 7.43701 56.96 7.43701C57.7808 7.43701 58.1941 7.88687 58.1941 8.79283V9.9987C58.1941 10.3298 58.2061 10.586 58.2361 10.7797H57.613V10.7735ZM57.5172 9.14272C56.7444 9.14272 56.355 9.33641 56.355 9.80501C56.355 10.1487 56.5527 10.3174 56.8342 10.3174C57.1877 10.3174 57.5172 10.0362 57.5172 9.64881V9.14272Z" fill="black"/>
<path d="M61.0222 10.8485C60.5789 10.8485 60.2494 10.6548 60.0337 10.2674H60.0217L59.9798 10.7735H59.3867C59.4047 10.5111 59.4107 10.2174 59.4107 9.89252V6H60.1116V7.98063H60.1236C60.3333 7.61824 60.6627 7.43705 61.124 7.43705C61.8789 7.43705 62.4061 8.11183 62.4061 9.09277C62.4061 10.105 61.819 10.8485 61.0222 10.8485ZM60.8784 8.00562C60.477 8.00562 60.1116 8.368 60.1116 8.87409V9.44891C60.1116 9.89877 60.4411 10.2674 60.8664 10.2674C61.3876 10.2674 61.6991 9.82379 61.6991 9.11777C61.6991 8.45547 61.3756 8.00562 60.8784 8.00562Z" fill="black"/>
<path d="M63.4355 6H64.1305V10.7672H63.4355V6Z" fill="black"/>
<path d="M67.9238 9.31147H65.8331C65.8451 9.93002 66.2404 10.2799 66.8215 10.2799C67.1331 10.2799 67.4146 10.2237 67.6662 10.1237L67.7741 10.6298C67.4805 10.7673 67.1331 10.8297 66.7257 10.8297C65.7432 10.8297 65.1621 10.1862 65.1621 9.18026C65.1621 8.18057 65.7552 7.42456 66.6478 7.42456C67.4446 7.42456 67.9538 8.04312 67.9538 8.98032C67.9538 9.11153 67.9478 9.22399 67.9238 9.31147ZM67.2888 8.79288C67.2888 8.28679 67.0432 7.93065 66.5999 7.93065C66.1985 7.93065 65.887 8.29304 65.8391 8.79288H67.2888Z" fill="black"/>
<path d="M72.1464 10.8484C71.2298 10.8484 70.6367 10.1362 70.6367 9.16772C70.6367 8.15553 71.2418 7.43701 72.2003 7.43701C73.1049 7.43701 73.71 8.11805 73.71 9.11148C73.71 10.1299 73.0869 10.8484 72.1464 10.8484ZM72.1763 7.96809C71.6731 7.96809 71.3496 8.46169 71.3496 9.14272C71.3496 9.81751 71.6791 10.3049 72.1704 10.3049C72.6616 10.3049 72.9911 9.78002 72.9911 9.12398C72.9851 8.46169 72.6676 7.96809 72.1763 7.96809Z" fill="black"/>
<path d="M77.4547 10.7736H76.7598V8.89295C76.7598 8.31188 76.5441 8.02447 76.1248 8.02447C75.7114 8.02447 75.4298 8.3931 75.4298 8.82422V10.7674H74.7349V8.43684C74.7349 8.14943 74.7289 7.83703 74.7109 7.49964H75.322L75.3519 8.00573H75.3699C75.5556 7.65584 75.939 7.43091 76.3644 7.43091C77.0234 7.43091 77.4547 7.95574 77.4547 8.81172V10.7736Z" fill="black"/>
<path d="M82.0123 8.04933H81.2455V9.63633C81.2455 10.0424 81.3833 10.2424 81.6529 10.2424C81.7727 10.2424 81.8806 10.2299 81.9644 10.2111L81.9824 10.761C81.8446 10.8172 81.6649 10.8422 81.4432 10.8422C80.8921 10.8422 80.5686 10.5235 80.5686 9.69881V8.04933H80.1133V7.50575H80.5686V6.90594L81.2515 6.68726V7.4995H82.0183V8.04933" fill="black"/>
<path d="M85.7042 10.7735H85.0092V8.90533C85.0092 8.31802 84.7936 8.02436 84.3742 8.02436C84.0148 8.02436 83.6793 8.28053 83.6793 8.79912V10.7672H82.9844V6H83.6793V7.96188H83.6913C83.9129 7.60574 84.2245 7.4308 84.6318 7.4308C85.2968 7.4308 85.7042 7.96813 85.7042 8.82411V10.7735Z" fill="black"/>
<path d="M89.2617 9.31147H87.171C87.1829 9.93002 87.5783 10.2799 88.1594 10.2799C88.471 10.2799 88.7525 10.2237 89.0041 10.1237L89.112 10.6298C88.8184 10.7673 88.471 10.8297 88.0636 10.8297C87.0811 10.8297 86.5 10.1862 86.5 9.18026C86.5 8.18057 87.0931 7.42456 87.9857 7.42456C88.7825 7.42456 89.2917 8.04312 89.2917 8.98032C89.2917 9.11153 89.2857 9.22399 89.2617 9.31147ZM88.6267 8.79288C88.6267 8.28679 88.3811 7.93065 87.9378 7.93065C87.5364 7.93065 87.2189 8.29304 87.177 8.79288H88.6267Z" fill="black"/>
</svg>
